<svg id="visual" viewBox="0 0 900 600" width="900" height="600" xmlns="http://www.w3.org/2000/svg" xmlns:xlink="http://www.w3.org/1999/xlink" version="1.1"><rect x="0" y="0" width="900" height="600" fill="#FF0066"></rect><g transform="translate(35.23067531861824 -51.34436766847671)"><path d="M317.3 -363.6C414.8 -296.4 499.9 -199.8 528.7 -85.9C557.4 27.9 529.9 159 470.3 280.4C410.8 401.9 319.3 513.9 201 560.5C82.8 607 -62.2 588.2 -193.2 537.6C-324.1 487 -440.9 404.5 -517.1 290C-593.4 175.6 -629.1 29.2 -601.1 -102C-573.2 -233.1 -481.7 -349.1 -370.9 -413.9C-260.1 -478.7 -130.1 -492.5 -10.1 -480.5C109.9 -468.5 219.8 -430.7 317.3 -363.6" fill="#a52c6e"></path></g></svg>